<mxfile host="app.diagrams.net" modified="2023-04-18T15:11:51.572Z" agent="Mozilla/5.0 (X11; Linux x86_64) AppleWebKit/537.36 (KHTML, like Gecko) Chrome/108.0.0.0 Safari/537.36" etag="j8tnKc_Y9pkIptkJ9pDW" version="21.1.8" type="github">
  <diagram name="Página-1" id="4UaUJJysQdIBshk8qY5e">
    <mxGraphModel dx="648" dy="381" grid="1" gridSize="10" guides="1" tooltips="1" connect="1" arrows="1" fold="1" page="1" pageScale="1" pageWidth="827" pageHeight="1169" math="0" shadow="0">
      <root>
        <mxCell id="0" />
        <mxCell id="1" parent="0" />
        <mxCell id="hFmW_snhWWxlQv_i0Dny-33" value="MARCA" style="rounded=0;whiteSpace=wrap;html=1;" parent="1" vertex="1">
          <mxGeometry x="40" y="650" width="120" height="60" as="geometry" />
        </mxCell>
        <mxCell id="hFmW_snhWWxlQv_i0Dny-36" value="MODELO" style="rounded=0;whiteSpace=wrap;html=1;" parent="1" vertex="1">
          <mxGeometry x="300" y="650" width="120" height="60" as="geometry" />
        </mxCell>
        <mxCell id="hFmW_snhWWxlQv_i0Dny-57" value="pertence" style="rhombus;whiteSpace=wrap;html=1;" parent="1" vertex="1">
          <mxGeometry x="310" y="570" width="100" height="40" as="geometry" />
        </mxCell>
        <mxCell id="hFmW_snhWWxlQv_i0Dny-58" value="" style="endArrow=none;html=1;rounded=0;entryX=0.5;entryY=1;entryDx=0;entryDy=0;exitX=0.5;exitY=0;exitDx=0;exitDy=0;" parent="1" source="hFmW_snhWWxlQv_i0Dny-57" target="hFmW_snhWWxlQv_i0Dny-37" edge="1">
          <mxGeometry width="50" height="50" relative="1" as="geometry">
            <mxPoint x="420" y="690" as="sourcePoint" />
            <mxPoint x="470" y="640" as="targetPoint" />
          </mxGeometry>
        </mxCell>
        <mxCell id="hFmW_snhWWxlQv_i0Dny-59" value="" style="endArrow=none;html=1;rounded=0;entryX=0.5;entryY=1;entryDx=0;entryDy=0;exitX=0.5;exitY=0;exitDx=0;exitDy=0;" parent="1" source="hFmW_snhWWxlQv_i0Dny-36" target="hFmW_snhWWxlQv_i0Dny-57" edge="1">
          <mxGeometry width="50" height="50" relative="1" as="geometry">
            <mxPoint x="420" y="690" as="sourcePoint" />
            <mxPoint x="470" y="640" as="targetPoint" />
          </mxGeometry>
        </mxCell>
        <mxCell id="hFmW_snhWWxlQv_i0Dny-60" value="possui" style="rhombus;whiteSpace=wrap;html=1;" parent="1" vertex="1">
          <mxGeometry x="180" y="660" width="100" height="40" as="geometry" />
        </mxCell>
        <mxCell id="hFmW_snhWWxlQv_i0Dny-61" value="" style="endArrow=none;html=1;rounded=0;entryX=1;entryY=0.5;entryDx=0;entryDy=0;exitX=0;exitY=0.5;exitDx=0;exitDy=0;" parent="1" source="hFmW_snhWWxlQv_i0Dny-36" target="hFmW_snhWWxlQv_i0Dny-60" edge="1">
          <mxGeometry width="50" height="50" relative="1" as="geometry">
            <mxPoint x="430" y="740" as="sourcePoint" />
            <mxPoint x="480" y="690" as="targetPoint" />
          </mxGeometry>
        </mxCell>
        <mxCell id="hFmW_snhWWxlQv_i0Dny-62" value="" style="endArrow=none;html=1;rounded=0;entryX=1;entryY=0.5;entryDx=0;entryDy=0;exitX=0;exitY=0.5;exitDx=0;exitDy=0;" parent="1" source="hFmW_snhWWxlQv_i0Dny-60" target="hFmW_snhWWxlQv_i0Dny-33" edge="1">
          <mxGeometry width="50" height="50" relative="1" as="geometry">
            <mxPoint x="430" y="740" as="sourcePoint" />
            <mxPoint x="160" y="680" as="targetPoint" />
          </mxGeometry>
        </mxCell>
        <mxCell id="hFmW_snhWWxlQv_i0Dny-63" value="" style="group" parent="1" vertex="1" connectable="0">
          <mxGeometry x="160" y="460" width="390" height="70" as="geometry" />
        </mxCell>
        <mxCell id="hFmW_snhWWxlQv_i0Dny-37" value="VEÍCULO" style="rounded=0;whiteSpace=wrap;html=1;" parent="hFmW_snhWWxlQv_i0Dny-63" vertex="1">
          <mxGeometry x="140" y="10" width="120" height="60" as="geometry" />
        </mxCell>
        <mxCell id="hFmW_snhWWxlQv_i0Dny-38" value="" style="endArrow=none;html=1;rounded=0;entryX=0.5;entryY=1;entryDx=0;entryDy=0;exitX=0.375;exitY=0;exitDx=0;exitDy=0;exitPerimeter=0;" parent="hFmW_snhWWxlQv_i0Dny-63" edge="1">
          <mxGeometry width="50" height="50" relative="1" as="geometry">
            <mxPoint x="285" y="10" as="sourcePoint" />
            <mxPoint x="285" y="10" as="targetPoint" />
          </mxGeometry>
        </mxCell>
        <mxCell id="hFmW_snhWWxlQv_i0Dny-39" value="" style="ellipse;whiteSpace=wrap;html=1;aspect=fixed;" parent="hFmW_snhWWxlQv_i0Dny-63" vertex="1">
          <mxGeometry x="290" y="10" width="10" height="10" as="geometry" />
        </mxCell>
        <mxCell id="hFmW_snhWWxlQv_i0Dny-40" value="" style="endArrow=none;html=1;rounded=0;exitX=1;exitY=0.25;exitDx=0;exitDy=0;entryX=0;entryY=0.5;entryDx=0;entryDy=0;" parent="hFmW_snhWWxlQv_i0Dny-63" target="hFmW_snhWWxlQv_i0Dny-39" edge="1">
          <mxGeometry width="50" height="50" relative="1" as="geometry">
            <mxPoint x="260" y="15" as="sourcePoint" />
            <mxPoint x="295" y="15" as="targetPoint" />
          </mxGeometry>
        </mxCell>
        <mxCell id="hFmW_snhWWxlQv_i0Dny-42" value="" style="ellipse;whiteSpace=wrap;html=1;aspect=fixed;fillColor=#000000;" parent="hFmW_snhWWxlQv_i0Dny-63" vertex="1">
          <mxGeometry x="290" y="30" width="10" height="10" as="geometry" />
        </mxCell>
        <mxCell id="hFmW_snhWWxlQv_i0Dny-43" value="" style="endArrow=none;html=1;rounded=0;exitX=1;exitY=0.25;exitDx=0;exitDy=0;entryX=0;entryY=0.5;entryDx=0;entryDy=0;" parent="hFmW_snhWWxlQv_i0Dny-63" target="hFmW_snhWWxlQv_i0Dny-42" edge="1">
          <mxGeometry width="50" height="50" relative="1" as="geometry">
            <mxPoint x="260" y="35" as="sourcePoint" />
            <mxPoint x="295" y="35" as="targetPoint" />
          </mxGeometry>
        </mxCell>
        <mxCell id="hFmW_snhWWxlQv_i0Dny-45" value="" style="ellipse;whiteSpace=wrap;html=1;aspect=fixed;" parent="hFmW_snhWWxlQv_i0Dny-63" vertex="1">
          <mxGeometry x="290" y="50" width="10" height="10" as="geometry" />
        </mxCell>
        <mxCell id="hFmW_snhWWxlQv_i0Dny-46" value="" style="endArrow=none;html=1;rounded=0;exitX=1;exitY=0.25;exitDx=0;exitDy=0;entryX=0;entryY=0.5;entryDx=0;entryDy=0;" parent="hFmW_snhWWxlQv_i0Dny-63" target="hFmW_snhWWxlQv_i0Dny-45" edge="1">
          <mxGeometry width="50" height="50" relative="1" as="geometry">
            <mxPoint x="260" y="55" as="sourcePoint" />
            <mxPoint x="295" y="55" as="targetPoint" />
          </mxGeometry>
        </mxCell>
        <mxCell id="hFmW_snhWWxlQv_i0Dny-48" value="" style="ellipse;whiteSpace=wrap;html=1;aspect=fixed;fontStyle=1" parent="hFmW_snhWWxlQv_i0Dny-63" vertex="1">
          <mxGeometry x="100" y="10" width="10" height="10" as="geometry" />
        </mxCell>
        <mxCell id="hFmW_snhWWxlQv_i0Dny-49" value="" style="endArrow=none;html=1;rounded=0;exitX=1;exitY=0.5;exitDx=0;exitDy=0;entryX=0;entryY=0.5;entryDx=0;entryDy=0;fontStyle=1" parent="hFmW_snhWWxlQv_i0Dny-63" source="hFmW_snhWWxlQv_i0Dny-48" edge="1">
          <mxGeometry width="50" height="50" relative="1" as="geometry">
            <mxPoint x="110" y="14.800000000000011" as="sourcePoint" />
            <mxPoint x="140" y="14.800000000000011" as="targetPoint" />
          </mxGeometry>
        </mxCell>
        <mxCell id="hFmW_snhWWxlQv_i0Dny-50" value="placa" style="text;html=1;align=center;verticalAlign=middle;resizable=0;points=[];autosize=1;strokeColor=none;fillColor=none;" parent="hFmW_snhWWxlQv_i0Dny-63" vertex="1">
          <mxGeometry x="50" width="50" height="30" as="geometry" />
        </mxCell>
        <mxCell id="hFmW_snhWWxlQv_i0Dny-51" value="" style="ellipse;whiteSpace=wrap;html=1;aspect=fixed;" parent="hFmW_snhWWxlQv_i0Dny-63" vertex="1">
          <mxGeometry x="100" y="30" width="10" height="10" as="geometry" />
        </mxCell>
        <mxCell id="hFmW_snhWWxlQv_i0Dny-52" value="" style="endArrow=none;html=1;rounded=0;exitX=1;exitY=0.5;exitDx=0;exitDy=0;entryX=0;entryY=0.5;entryDx=0;entryDy=0;" parent="hFmW_snhWWxlQv_i0Dny-63" source="hFmW_snhWWxlQv_i0Dny-51" edge="1">
          <mxGeometry width="50" height="50" relative="1" as="geometry">
            <mxPoint x="110" y="34.80000000000001" as="sourcePoint" />
            <mxPoint x="140" y="34.80000000000001" as="targetPoint" />
          </mxGeometry>
        </mxCell>
        <mxCell id="hFmW_snhWWxlQv_i0Dny-53" value="quilometragem" style="text;html=1;align=center;verticalAlign=middle;resizable=0;points=[];autosize=1;strokeColor=none;fillColor=none;" parent="hFmW_snhWWxlQv_i0Dny-63" vertex="1">
          <mxGeometry y="20" width="100" height="30" as="geometry" />
        </mxCell>
        <mxCell id="hFmW_snhWWxlQv_i0Dny-54" value="" style="ellipse;whiteSpace=wrap;html=1;aspect=fixed;" parent="hFmW_snhWWxlQv_i0Dny-63" vertex="1">
          <mxGeometry x="100" y="10" width="10" height="10" as="geometry" />
        </mxCell>
        <mxCell id="hFmW_snhWWxlQv_i0Dny-55" value="" style="endArrow=none;html=1;rounded=0;exitX=1;exitY=0.5;exitDx=0;exitDy=0;entryX=0;entryY=0.5;entryDx=0;entryDy=0;" parent="hFmW_snhWWxlQv_i0Dny-63" source="hFmW_snhWWxlQv_i0Dny-54" edge="1">
          <mxGeometry width="50" height="50" relative="1" as="geometry">
            <mxPoint x="110" y="14.800000000000011" as="sourcePoint" />
            <mxPoint x="140" y="14.800000000000011" as="targetPoint" />
          </mxGeometry>
        </mxCell>
        <mxCell id="hFmW_snhWWxlQv_i0Dny-41" value="cor" style="text;html=1;align=center;verticalAlign=middle;resizable=0;points=[];autosize=1;strokeColor=none;fillColor=none;" parent="hFmW_snhWWxlQv_i0Dny-63" vertex="1">
          <mxGeometry x="300" width="40" height="30" as="geometry" />
        </mxCell>
        <mxCell id="hFmW_snhWWxlQv_i0Dny-44" value="nº chassi" style="text;html=1;align=center;verticalAlign=middle;resizable=0;points=[];autosize=1;strokeColor=none;fillColor=none;" parent="hFmW_snhWWxlQv_i0Dny-63" vertex="1">
          <mxGeometry x="300" y="20" width="70" height="30" as="geometry" />
        </mxCell>
        <mxCell id="hFmW_snhWWxlQv_i0Dny-47" value="ano de fabri." style="text;html=1;align=center;verticalAlign=middle;resizable=0;points=[];autosize=1;strokeColor=none;fillColor=none;" parent="hFmW_snhWWxlQv_i0Dny-63" vertex="1">
          <mxGeometry x="300" y="40" width="90" height="30" as="geometry" />
        </mxCell>
        <mxCell id="hFmW_snhWWxlQv_i0Dny-64" value="COMPRADOR" style="rounded=0;whiteSpace=wrap;html=1;" parent="1" vertex="1">
          <mxGeometry x="300" y="310" width="120" height="60" as="geometry" />
        </mxCell>
        <mxCell id="hFmW_snhWWxlQv_i0Dny-66" value="compra" style="rhombus;whiteSpace=wrap;html=1;" parent="1" vertex="1">
          <mxGeometry x="310" y="400" width="100" height="40" as="geometry" />
        </mxCell>
        <mxCell id="hFmW_snhWWxlQv_i0Dny-67" value="" style="endArrow=none;html=1;rounded=0;entryX=0.5;entryY=1;entryDx=0;entryDy=0;exitX=0.5;exitY=0;exitDx=0;exitDy=0;" parent="1" source="hFmW_snhWWxlQv_i0Dny-66" target="hFmW_snhWWxlQv_i0Dny-64" edge="1">
          <mxGeometry width="50" height="50" relative="1" as="geometry">
            <mxPoint x="470" y="430" as="sourcePoint" />
            <mxPoint x="520" y="380" as="targetPoint" />
          </mxGeometry>
        </mxCell>
        <mxCell id="hFmW_snhWWxlQv_i0Dny-68" value="" style="endArrow=none;html=1;rounded=0;entryX=0.5;entryY=1;entryDx=0;entryDy=0;exitX=0.5;exitY=0;exitDx=0;exitDy=0;" parent="1" source="hFmW_snhWWxlQv_i0Dny-37" target="hFmW_snhWWxlQv_i0Dny-66" edge="1">
          <mxGeometry width="50" height="50" relative="1" as="geometry">
            <mxPoint x="470" y="430" as="sourcePoint" />
            <mxPoint x="520" y="380" as="targetPoint" />
          </mxGeometry>
        </mxCell>
        <mxCell id="hFmW_snhWWxlQv_i0Dny-69" value="" style="ellipse;whiteSpace=wrap;html=1;aspect=fixed;" parent="1" vertex="1">
          <mxGeometry x="270" y="415" width="10" height="10" as="geometry" />
        </mxCell>
        <mxCell id="hFmW_snhWWxlQv_i0Dny-70" value="" style="endArrow=none;html=1;rounded=0;exitX=1;exitY=0.5;exitDx=0;exitDy=0;entryX=0;entryY=0.5;entryDx=0;entryDy=0;" parent="1" source="hFmW_snhWWxlQv_i0Dny-69" edge="1">
          <mxGeometry width="50" height="50" relative="1" as="geometry">
            <mxPoint x="280" y="419.8" as="sourcePoint" />
            <mxPoint x="310" y="419.8" as="targetPoint" />
          </mxGeometry>
        </mxCell>
        <mxCell id="hFmW_snhWWxlQv_i0Dny-71" value="data" style="text;html=1;align=center;verticalAlign=middle;resizable=0;points=[];autosize=1;strokeColor=none;fillColor=none;" parent="1" vertex="1">
          <mxGeometry x="220" y="405" width="50" height="30" as="geometry" />
        </mxCell>
        <mxCell id="hFmW_snhWWxlQv_i0Dny-72" value="" style="ellipse;whiteSpace=wrap;html=1;aspect=fixed;" parent="1" vertex="1">
          <mxGeometry x="440" y="415" width="10" height="10" as="geometry" />
        </mxCell>
        <mxCell id="hFmW_snhWWxlQv_i0Dny-73" value="" style="endArrow=none;html=1;rounded=0;exitX=1;exitY=0.25;exitDx=0;exitDy=0;entryX=0;entryY=0.5;entryDx=0;entryDy=0;" parent="1" target="hFmW_snhWWxlQv_i0Dny-72" edge="1">
          <mxGeometry width="50" height="50" relative="1" as="geometry">
            <mxPoint x="410" y="420" as="sourcePoint" />
            <mxPoint x="445" y="420" as="targetPoint" />
          </mxGeometry>
        </mxCell>
        <mxCell id="hFmW_snhWWxlQv_i0Dny-74" value="valor" style="text;html=1;align=center;verticalAlign=middle;resizable=0;points=[];autosize=1;strokeColor=none;fillColor=none;" parent="1" vertex="1">
          <mxGeometry x="450" y="405" width="50" height="30" as="geometry" />
        </mxCell>
        <mxCell id="hFmW_snhWWxlQv_i0Dny-76" value="" style="triangle;whiteSpace=wrap;html=1;rotation=90;" parent="1" vertex="1">
          <mxGeometry x="345" y="220" width="30" height="80" as="geometry" />
        </mxCell>
        <mxCell id="hFmW_snhWWxlQv_i0Dny-77" value="" style="endArrow=none;html=1;rounded=0;entryX=1;entryY=0.5;entryDx=0;entryDy=0;exitX=0.5;exitY=0;exitDx=0;exitDy=0;" parent="1" source="hFmW_snhWWxlQv_i0Dny-64" target="hFmW_snhWWxlQv_i0Dny-76" edge="1">
          <mxGeometry width="50" height="50" relative="1" as="geometry">
            <mxPoint x="440" y="330" as="sourcePoint" />
            <mxPoint x="490" y="280" as="targetPoint" />
          </mxGeometry>
        </mxCell>
        <mxCell id="hFmW_snhWWxlQv_i0Dny-78" value="COMPRADOR&amp;nbsp;&lt;br&gt;SOLTEIRO" style="rounded=0;whiteSpace=wrap;html=1;" parent="1" vertex="1">
          <mxGeometry x="230" y="150" width="120" height="60" as="geometry" />
        </mxCell>
        <mxCell id="hFmW_snhWWxlQv_i0Dny-79" value="COMPRADOR CASADO" style="rounded=0;whiteSpace=wrap;html=1;" parent="1" vertex="1">
          <mxGeometry x="370" y="150" width="120" height="60" as="geometry" />
        </mxCell>
        <mxCell id="hFmW_snhWWxlQv_i0Dny-80" value="" style="endArrow=none;html=1;rounded=0;entryX=0.5;entryY=1;entryDx=0;entryDy=0;exitX=0;exitY=0.25;exitDx=0;exitDy=0;" parent="1" source="hFmW_snhWWxlQv_i0Dny-76" target="hFmW_snhWWxlQv_i0Dny-79" edge="1">
          <mxGeometry width="50" height="50" relative="1" as="geometry">
            <mxPoint x="350" y="270" as="sourcePoint" />
            <mxPoint x="400" y="220" as="targetPoint" />
          </mxGeometry>
        </mxCell>
        <mxCell id="hFmW_snhWWxlQv_i0Dny-81" value="" style="endArrow=none;html=1;rounded=0;entryX=0.5;entryY=1;entryDx=0;entryDy=0;exitX=0;exitY=0.75;exitDx=0;exitDy=0;" parent="1" source="hFmW_snhWWxlQv_i0Dny-76" target="hFmW_snhWWxlQv_i0Dny-78" edge="1">
          <mxGeometry width="50" height="50" relative="1" as="geometry">
            <mxPoint x="350" y="270" as="sourcePoint" />
            <mxPoint x="400" y="220" as="targetPoint" />
          </mxGeometry>
        </mxCell>
        <mxCell id="hFmW_snhWWxlQv_i0Dny-83" value="" style="ellipse;whiteSpace=wrap;html=1;aspect=fixed;" parent="1" vertex="1">
          <mxGeometry x="260" y="310" width="10" height="10" as="geometry" />
        </mxCell>
        <mxCell id="hFmW_snhWWxlQv_i0Dny-84" value="" style="endArrow=none;html=1;rounded=0;exitX=1;exitY=0.5;exitDx=0;exitDy=0;entryX=0;entryY=0.5;entryDx=0;entryDy=0;" parent="1" source="hFmW_snhWWxlQv_i0Dny-83" edge="1">
          <mxGeometry width="50" height="50" relative="1" as="geometry">
            <mxPoint x="270" y="314.8" as="sourcePoint" />
            <mxPoint x="300" y="314.8" as="targetPoint" />
          </mxGeometry>
        </mxCell>
        <mxCell id="hFmW_snhWWxlQv_i0Dny-85" value="nome" style="text;html=1;align=center;verticalAlign=middle;resizable=0;points=[];autosize=1;strokeColor=none;fillColor=none;" parent="1" vertex="1">
          <mxGeometry x="210" y="300" width="50" height="30" as="geometry" />
        </mxCell>
        <mxCell id="hFmW_snhWWxlQv_i0Dny-86" value="" style="ellipse;whiteSpace=wrap;html=1;aspect=fixed;fillColor=#000000;" parent="1" vertex="1">
          <mxGeometry x="450" y="310" width="10" height="10" as="geometry" />
        </mxCell>
        <mxCell id="hFmW_snhWWxlQv_i0Dny-87" value="" style="endArrow=none;html=1;rounded=0;exitX=1;exitY=0.25;exitDx=0;exitDy=0;entryX=0;entryY=0.5;entryDx=0;entryDy=0;" parent="1" target="hFmW_snhWWxlQv_i0Dny-86" edge="1">
          <mxGeometry width="50" height="50" relative="1" as="geometry">
            <mxPoint x="420" y="315" as="sourcePoint" />
            <mxPoint x="455" y="315" as="targetPoint" />
          </mxGeometry>
        </mxCell>
        <mxCell id="hFmW_snhWWxlQv_i0Dny-88" value="CPF" style="text;html=1;align=center;verticalAlign=middle;resizable=0;points=[];autosize=1;strokeColor=none;fillColor=none;" parent="1" vertex="1">
          <mxGeometry x="460" y="300" width="50" height="30" as="geometry" />
        </mxCell>
        <mxCell id="hFmW_snhWWxlQv_i0Dny-94" value="CÔNJUGE" style="rounded=0;whiteSpace=wrap;html=1;" parent="1" vertex="1">
          <mxGeometry x="640" y="150" width="120" height="60" as="geometry" />
        </mxCell>
        <mxCell id="hFmW_snhWWxlQv_i0Dny-95" value="possui" style="rhombus;whiteSpace=wrap;html=1;" parent="1" vertex="1">
          <mxGeometry x="520" y="160" width="100" height="40" as="geometry" />
        </mxCell>
        <mxCell id="hFmW_snhWWxlQv_i0Dny-96" value="" style="endArrow=none;html=1;rounded=0;entryX=1;entryY=0.5;entryDx=0;entryDy=0;exitX=0;exitY=0.5;exitDx=0;exitDy=0;" parent="1" source="hFmW_snhWWxlQv_i0Dny-95" target="hFmW_snhWWxlQv_i0Dny-79" edge="1">
          <mxGeometry width="50" height="50" relative="1" as="geometry">
            <mxPoint x="500" y="180" as="sourcePoint" />
            <mxPoint x="550" y="130" as="targetPoint" />
          </mxGeometry>
        </mxCell>
        <mxCell id="hFmW_snhWWxlQv_i0Dny-97" value="" style="endArrow=none;html=1;rounded=0;entryX=0;entryY=0.5;entryDx=0;entryDy=0;exitX=1;exitY=0.5;exitDx=0;exitDy=0;" parent="1" source="hFmW_snhWWxlQv_i0Dny-95" target="hFmW_snhWWxlQv_i0Dny-94" edge="1">
          <mxGeometry width="50" height="50" relative="1" as="geometry">
            <mxPoint x="500" y="180" as="sourcePoint" />
            <mxPoint x="550" y="130" as="targetPoint" />
          </mxGeometry>
        </mxCell>
        <mxCell id="hFmW_snhWWxlQv_i0Dny-99" value="" style="ellipse;whiteSpace=wrap;html=1;aspect=fixed;fillColor=#000000;" parent="1" vertex="1">
          <mxGeometry x="790" y="160" width="10" height="10" as="geometry" />
        </mxCell>
        <mxCell id="hFmW_snhWWxlQv_i0Dny-100" value="" style="endArrow=none;html=1;rounded=0;exitX=1;exitY=0.25;exitDx=0;exitDy=0;entryX=0;entryY=0.5;entryDx=0;entryDy=0;" parent="1" target="hFmW_snhWWxlQv_i0Dny-99" edge="1">
          <mxGeometry width="50" height="50" relative="1" as="geometry">
            <mxPoint x="760" y="165" as="sourcePoint" />
            <mxPoint x="795" y="165" as="targetPoint" />
          </mxGeometry>
        </mxCell>
        <mxCell id="hFmW_snhWWxlQv_i0Dny-101" value="CPF" style="text;html=1;align=center;verticalAlign=middle;resizable=0;points=[];autosize=1;strokeColor=none;fillColor=none;" parent="1" vertex="1">
          <mxGeometry x="800" y="150" width="50" height="30" as="geometry" />
        </mxCell>
        <mxCell id="hFmW_snhWWxlQv_i0Dny-102" value="" style="ellipse;whiteSpace=wrap;html=1;aspect=fixed;" parent="1" vertex="1">
          <mxGeometry x="790" y="180" width="10" height="10" as="geometry" />
        </mxCell>
        <mxCell id="hFmW_snhWWxlQv_i0Dny-103" value="" style="endArrow=none;html=1;rounded=0;exitX=1;exitY=0.25;exitDx=0;exitDy=0;entryX=0;entryY=0.5;entryDx=0;entryDy=0;" parent="1" target="hFmW_snhWWxlQv_i0Dny-102" edge="1">
          <mxGeometry width="50" height="50" relative="1" as="geometry">
            <mxPoint x="760" y="185" as="sourcePoint" />
            <mxPoint x="795" y="185" as="targetPoint" />
          </mxGeometry>
        </mxCell>
        <mxCell id="hFmW_snhWWxlQv_i0Dny-104" value="nome" style="text;html=1;align=center;verticalAlign=middle;resizable=0;points=[];autosize=1;strokeColor=none;fillColor=none;" parent="1" vertex="1">
          <mxGeometry x="800" y="170" width="50" height="30" as="geometry" />
        </mxCell>
      </root>
    </mxGraphModel>
  </diagram>
</mxfile>
